<svg xmlns="http://www.w3.org/2000/svg" viewBox="0 0 400 400" fill="none" shape-rendering="auto" width="512" height="512"><desc>"Adventurer Neutral" by "Lisa Wischofsky", licensed under "CC BY 4.0". / Remix of the original. - Created with dicebear.com</desc><metadata xmlns:dc="http://purl.org/dc/elements/1.1/" xmlns:cc="http://creativecommons.org/ns#" xmlns:rdf="http://www.w3.org/1999/02/22-rdf-syntax-ns#"><rdf:RDF><cc:Work><dc:title>Adventurer Neutral</dc:title><dc:creator><cc:Agent rdf:about="https://www.instagram.com/lischi_art/"><dc:title>Lisa Wischofsky</dc:title></cc:Agent></dc:creator><dc:source>https://www.figma.com/community/file/1184595184137881796</dc:source><cc:license rdf:resource="https://creativecommons.org/licenses/by/4.0/" /></cc:Work></rdf:RDF></metadata><mask id="viewboxMask"><rect width="400" height="400" rx="0" ry="0" x="0" y="0" fill="#fff" /></mask><g mask="url(#viewboxMask)"><rect fill="#ecad80" width="400" height="400" x="0" y="0" /><g transform="translate(-279 -322)"><path d="M562.01 467.8c1.68 0 3.23.31 4.88.58-.28 2.28.34 4.36-2.64 4.8-9.4.76-18.83 1.45-28.25 2.06-4.32.2-8.78 1.16-13.1.84-1.94-.79-2.62-2-2.03-4.1 1.45-1.38 3.19-1.54 5.1-1.69 12.02-.64 24-1.86 36.04-2.5ZM396.33 481.31c1.23 1.24 2.2 1.91 2.08 3.85-1.42 2.52-4.9 2.05-7.38 2.36-8.05.21-16.06 1.68-24.09 1.71-2.7-.36-2.11-2.53-2.53-4.58 10.33-2.64 21.37-1.79 31.93-3.34ZM618.89 483.07c1.04.75 2.08 1.48 3.13 2.22a65.59 65.59 0 0 1-9.93 38.78 65.45 65.45 0 0 1-24.32 22.73c-14.52 7.96-32.32 9.86-48.26 5.44a65.36 65.36 0 0 1-35.32-24.4 63.91 63.91 0 0 1-12.38-33.97c2.1-3.32 5.74-3 9.17-3.26 30.68-2.1 61.35-4.13 92.02-6.22 8.7-.2 17.2-1.64 25.89-1.32Z" fill="#000"/><path d="M616.28 488.65c.74 20.78-11.03 41.27-28.85 51.8-11.82 6.93-25.88 9.98-39.46 7.75a59.72 59.72 0 0 1-35.27-18.9c-8.02-8.88-13.6-20.53-14.76-32.49 11.17-1.23 22.38-1.67 33.58-2.63.38 8.47 1.87 17.19 5.2 25.03 1.89 4.28 5.29 10.07 10.23 11.13 4.79.85 7.97-2.58 9.97-6.45 4.58-9.28 4-21.5 3.22-31.56 18.7-1.25 37.42-2.66 56.14-3.67Z" fill="#fff"/><path d="M415.01 499.71c8.1-.69 16.13-1.44 24.27-1.05.87.83 1.75 1.67 2.64 2.49.19 16-6.7 31.57-18.78 42.06a54.81 54.81 0 0 1-42.17 13.2 54.34 54.34 0 0 1-30.73-13.64 55.18 55.18 0 0 1-17.98-34.89c1.04-.88 2.19-2.68 3.63-2.82 13.04-1.6 26.05-1.69 39.11-2.95 13.35-.64 26.66-1.71 40-2.4Z" fill="#000"/><path d="M436.36 504.29c-.69 5.07-1.44 9.93-3.28 14.74a49.5 49.5 0 0 1-22.2 25.81 51 51 0 0 1-23.88 6.33 49.93 49.93 0 0 1-35.25-14.93 49.66 49.66 0 0 1-13.37-25.88 1021.4 1021.4 0 0 1 34.1-2.24c-.06 7.18.95 14.37 4.79 20.58 1.69 2.6 4.35 5.19 7.69 5 3.57-.14 6.11-3.3 7.5-6.28 2.85-6.64 2.88-13.67 2.25-20.74 13.86-.8 27.77-2.18 41.65-2.39Z" fill="#fff"/></g><g transform="translate(-279 -322)"><path d="M545.03 378.5c24.7.94 48.04 8.97 69.45 21 2.26 1.31 4.92 2.48 6.79 4.32 1.3 2.39-.38 5.13-3.2 4.19-16.58-6.2-33.56-9.63-51.06-12.02-20.3-2.34-39.92-3.68-60.2-.13-3.2.44-6.87 2.16-10.08 1.59-2.66-1.69-1.2-6.1 1.29-7.37 13.63-9.33 30.79-12.1 47-11.58ZM407.99 396.92c3.5.64 6.6 1.92 9.63 3.78-.15 1.2-.26 2.4-.33 3.62-2.7.74-5.46 1.12-8.24 1.34-13.17 1.15-26.45 5.1-38.81 9.69-12.23 4.75-24.78 10.64-35.19 18.7-2.82 2.04-4.13 4.83-8.08 4.48-.5-.9-1-1.79-1.51-2.67.9-1.6 1.68-3.17 2.76-4.64 9.55-13.17 23.64-23.22 38.6-29.35 12.7-5.15 27.62-8.05 41.17-4.95Z" fill="#000"/></g><g transform="translate(-279 -322)"><path d="M480.96 561.69c4.71-.58 10.26.05 13.71 3.66 3.78 3.9 4.15 9.42 3.22 14.53-2.65 11.8-12.87 21.43-24.84 23.27-7.5 1.5-15.57-.3-22.15-4.05-5.15-2.9-8.86-7.64-11.08-13.06-1.31-3.29-1.62-7.23-.43-10.59 1.3-3.11 4.12-5 7.34-5.7 5.66-1.83 11.66.27 16.63 3.05 4.58-5.09 10.57-10.17 17.59-11.1Z" fill="#000"/><path d="M480.51 567.7c3.3-1.03 7.38-.57 10 1.78 2.06 2.03 2.11 5.89 1.71 8.56-1.84 9.78-10.28 17.74-20.07 19.32-6.52 1.3-13.19-.33-18.84-3.68-4.3-2.52-7.44-6.98-8.81-11.72-.7-2.45-.36-5.07 2.04-6.38 2.59-1.08 5.76-1.02 8.48-.5 3.48.7 5.8 2.92 8.97 4.33 1.93-.09 2.62-1.39 3.81-2.64 3.32-3.94 7.69-7.62 12.7-9.07Z" fill="#8F2E45"/></g><g transform="translate(-279 -322)"></g></g></svg>