<svg xmlns="http://www.w3.org/2000/svg" viewBox="0 0 400 400" fill="none" shape-rendering="auto" width="512" height="512"><desc>"Adventurer Neutral" by "Lisa Wischofsky", licensed under "CC BY 4.0". / Remix of the original. - Created with dicebear.com</desc><metadata xmlns:dc="http://purl.org/dc/elements/1.1/" xmlns:cc="http://creativecommons.org/ns#" xmlns:rdf="http://www.w3.org/1999/02/22-rdf-syntax-ns#"><rdf:RDF><cc:Work><dc:title>Adventurer Neutral</dc:title><dc:creator><cc:Agent rdf:about="https://www.instagram.com/lischi_art/"><dc:title>Lisa Wischofsky</dc:title></cc:Agent></dc:creator><dc:source>https://www.figma.com/community/file/1184595184137881796</dc:source><cc:license rdf:resource="https://creativecommons.org/licenses/by/4.0/" /></cc:Work></rdf:RDF></metadata><mask id="viewboxMask"><rect width="400" height="400" rx="0" ry="0" x="0" y="0" fill="#fff" /></mask><g mask="url(#viewboxMask)"><rect fill="#9e5622" width="400" height="400" x="0" y="0" /><g transform="translate(-279 -322)"><path d="M540.5 447.73c18.9-2.42 39.63-.58 56.95 7.8 8.55 4.17 16.74 10.3 21.22 18.9 3.9 7.33 3.91 16.75-.16 24.02-4.22 8.05-12 14.1-19.93 18.24-13.55 7.02-29.4 9.83-44.57 9.65-12.04.02-23.93-1.81-35.2-6.11-8.98-3.47-17.66-8.68-23.75-16.26-4.84-6.12-7.63-14.13-5.89-21.93 1.84-8.56 7.5-15.36 14.4-20.47 10.64-7.84 23.95-11.98 36.92-13.84Z" fill="#000"/><path d="M546.98 452.71c8.4-.27 17.24-.58 25.5 1.08 10.6 1.7 21.45 5.3 30.3 11.45 5.5 3.95 10.43 9.09 12.35 15.73 2.02 6.8-.27 14.13-4.75 19.45-6.1 7.46-15.56 12.38-24.55 15.43-9.89 3.26-20.41 5.08-30.83 4.84a92.86 92.86 0 0 1-30.23-4.45c-9.19-3.05-18.45-7.69-24.78-15.23-4.3-5.04-6.9-12.45-4.86-18.97 1.5-6.55 6.69-12.06 11.94-15.96 11.4-8.26 26.07-12.06 39.91-13.37Z" fill="#fff"/><path d="M373.48 460.76c16.32-2.29 34.23-.9 49.1 6.64 7.74 4 15.42 10.43 17.96 19.07 2.33 7.1-.17 14.74-4.65 20.42-6.29 7.75-15.28 12.42-24.65 15.4a89.74 89.74 0 0 1-45.3 1.76c-9.87-2.25-20-6.47-27.15-13.89-4.71-4.75-7.92-11.31-7.35-18.12.54-7.22 4.98-13.65 10.43-18.18 8.81-7.42 20.37-11.3 31.6-13.11Z" fill="#000"/><path d="M371.5 466.92c15.62-3 32.92-1.77 47.43 5.05 6.36 3.02 13.43 8.26 15.74 15.2 2.08 5.63.36 11.7-3.32 16.23-4.64 5.76-11.76 9.8-18.6 12.35a80.56 80.56 0 0 1-39 3.9c-9.28-1.29-18.97-4.28-26.66-9.78-5.23-3.9-9.63-9.03-9.9-15.85-.2-6.85 4.16-12.52 9.28-16.58 7.13-5.5 16.25-8.8 25.03-10.52Z" fill="#fff"/><path d="M592.23 469.2c2.12-1.59 4.65-.32 5.95 1.66 2.4 4 2.38 9.6 2.8 14.14.2 4.39.48 9.64-1.23 13.75-1.98 4.07-7.4 1.34-8.7-1.8-2.28-6.35-2.19-13.75-1.68-20.4.42-2.36.64-5.94 2.86-7.35ZM416.85 476.07c2.18.53 2.81 3.77 3.31 5.63.82 5.03 1.38 10.25 1.06 15.34-.33 2.54-.69 5.69-3.12 7.13-2.07 1.29-4.27-.03-5.35-1.93-2.07-3.84-2.16-8.98-2.29-13.24.06-4.36-.1-8.73 2.24-12.56 1.44-.39 2.65-.96 4.15-.37Z" fill="#000"/></g><g transform="translate(-279 -322)"><path d="M397.06 373.14c6.81.19 14.18 2.86 17.93 8.88 1.05 1.45.63 3.68.72 5.4-6.29.15-12.49.33-18.64 1.83-15.06 3.48-29.35 10.86-41.64 20.15-8.37 6.38-16.34 14.1-21.95 23.07-1.43 2.22-2.41 5.03-4.3 6.89-1.23.26-2.56.28-3.82.35-.05-1.77-.23-3.46.2-5.19 5.73-20.86 19.84-39.34 38.13-50.81 9.83-5.84 21.73-11.05 33.37-10.57ZM578.52 411.66c10.4 1.67 21.2 3.85 30 9.97l-.2 4.78c-4.07 1.6-7.3-.14-11.31-.77-6.82-1.2-13.9-1.25-20.83-1.11-29.25 1.32-58.23 9.9-83.97 23.74-1.44.63-2.9 1.06-4.4 1.54-2.6-5.36-3.62-10.91-.14-16.17 5.13-7.67 15.2-12.39 23.63-15.44 21.34-7.36 44.88-9 67.23-6.53Z" fill="#000"/></g><g transform="translate(-279 -322)"><path d="M550 573.51c1.46 0 3.54-.33 4.63.86 1.79 1.55.73 4.5-1.6 4.72-5.3.8-10.73.62-16.06 1.3-4.86.63-9.72 1.27-14.57 1.92a72.83 72.83 0 0 1 6.07 20.52c1.1 9.46.5 18.83-4.44 27.2a27.94 27.94 0 0 1-18.97 13.18c-9.3 1.52-18.57-.3-27.06-4.22-13.14-6.16-23.89-15.8-32.58-27.32-6.65 4.89-13 10.1-18.5 16.27-1.57 1.58-3.5 3.91-5.73 1.87-1.86-1.74-.28-4.03 1.06-5.54 9.67-10.78 21.93-19.53 34.63-26.4 28.47-15.26 61.04-22.5 93.12-24.35Z" fill="#000"/><path d="M516.86 583.39c1.15 3.94 2.8 7.7 3.96 11.64 2.13 6.95 2.55 14.24 1.79 21.44-1.11 7.19-4.63 14.3-11.1 18.07-7.43 4.5-16.62 4-24.65 1.5-15.04-4.85-26.95-15.23-36.46-27.58a164.36 164.36 0 0 1 29.3-14.53c1.71 2.36 3.26 5.1 5.41 7.07 1.42 1.48 4.45.11 4.09-2-.39-2.39-2.78-4.37-3.81-6.57-.12-.47.13-.76.75-.88 9.98-3.5 20.34-6.12 30.72-8.16Z" fill="#EA869E"/></g><g transform="translate(-279 -322)"></g></g></svg>