<svg xmlns="http://www.w3.org/2000/svg" viewBox="0 0 400 400" fill="none" shape-rendering="auto" width="512" height="512"><desc>"Adventurer Neutral" by "Lisa Wischofsky", licensed under "CC BY 4.0". / Remix of the original. - Created with dicebear.com</desc><metadata xmlns:dc="http://purl.org/dc/elements/1.1/" xmlns:cc="http://creativecommons.org/ns#" xmlns:rdf="http://www.w3.org/1999/02/22-rdf-syntax-ns#"><rdf:RDF><cc:Work><dc:title>Adventurer Neutral</dc:title><dc:creator><cc:Agent rdf:about="https://www.instagram.com/lischi_art/"><dc:title>Lisa Wischofsky</dc:title></cc:Agent></dc:creator><dc:source>https://www.figma.com/community/file/1184595184137881796</dc:source><cc:license rdf:resource="https://creativecommons.org/licenses/by/4.0/" /></cc:Work></rdf:RDF></metadata><mask id="viewboxMask"><rect width="400" height="400" rx="0" ry="0" x="0" y="0" fill="#fff" /></mask><g mask="url(#viewboxMask)"><rect fill="#f2d3b1" width="400" height="400" x="0" y="0" /><g transform="translate(-279 -322)"><path d="M617.23 468.82c1.16 1.34 2.37 2.36 2.84 4.14a65.5 65.5 0 0 1-7.98 51.11 65.74 65.74 0 0 1-34.83 27.28 65.88 65.88 0 0 1-36.24 1.27 65.18 65.18 0 0 1-40.77-30.86c-7.18-12.23-9.85-26.73-8.06-40.75.53-3.4 1.75-7.26 5.57-8.09 8.61-1.53 17.56-1.34 26.27-2.27 24.31-1.49 48.65-2.37 73-2.08 6.76-.37 13.46.4 20.2.25Z" fill="#000"/><path d="m607.09 474.28 7.45.37c3.8 14.15 1.78 29.85-5.17 42.73a59.07 59.07 0 0 1-32.1 27.84c-14.68 5.57-31.38 4.73-45.56-1.92a59.34 59.34 0 0 1-29.82-31.09c-4.2-10.22-5.99-22.1-3.63-32.98a17.6 17.6 0 0 1 5.7-1.4c16.9-1.37 33.84-2.38 50.78-3.11-.4 5.34-.18 10.53 2.1 15.47a26.66 26.66 0 0 0 18.61 15.04c4.89.87 9.94.6 14.61-1.13 8.19-2.82 14.36-9.95 16.48-18.27.92-3.9.66-7.59.54-11.55Z" fill="#fff"/><path d="M432.03 480.67c2.01-.23 3.8.3 5.74.68 4.2 9.05 4.82 19.93 3.38 29.69a55.08 55.08 0 0 1-23.63 36.48 54.76 54.76 0 0 1-37.5 8.79 54.68 54.68 0 0 1-38.26-23.14c-6.82-9.7-10.02-21.43-10-33.24 6.52-3.27 13.17-3.72 20.48-5.47 20.5-4.17 41.07-8.1 61.75-11.22 6-1 11.97-2.04 18.04-2.57Z" fill="#000"/><path d="M433.71 486.06c1.44 5.27 2.74 10.43 2.6 15.94-.2 9.5-3 19.08-8.31 27-9.89 15.06-28.07 23.77-46 21.87a49.72 49.72 0 0 1-32.18-16.71c-7.5-8.47-11.57-19.33-12.24-30.58 14.45-3.54 29.14-6.22 43.76-9 1.32 6.48 4.55 12.27 10.11 16.02 9.04 6.32 21.92 5.38 29.9-2.26 6.12-5.72 8.04-13.57 7.2-21.73l5.16-.54Z" fill="#fff"/></g><g transform="translate(-279 -322)"><path d="M530.99 353.9c17.06 1.95 34 7.42 48.62 16.5 6.84 4.33 13.98 9.93 18.27 16.9.9 1.17 1.25 3.53-.22 4.34-1.19 1.18-2.85.5-4.15-.1-16.36-8.83-35.52-13.28-53.92-15.02-13.52-.79-28.3-.86-41.16 3.86-2.92 1.03-5.5 2.98-8.47 3.85-1.37.25-2.43-1.11-2.88-2.26-1.81-4.7-2.23-10.24.18-14.8 2.6-5.35 7.91-8.65 13.31-10.66 9.68-3.6 20.27-3.32 30.42-2.61ZM414.04 408.09c8.18 2.36 14.6 10.77 13.54 19.42-1.87.56-3.6 1-5.58.73-14.22-1.45-29.3 1.52-42.82 5.85-14.05 4.67-28.5 11.6-39.42 21.77-1.34 1.3-4.25 2.95-5.5.75-1.73-2.36.02-4.07 1.38-5.97 12.84-16.22 29.69-30.97 48.9-39.03 8.9-3.65 20.04-6.5 29.5-3.53Z" fill="#000"/></g><g transform="translate(-279 -322)"><path d="M524.2 555.79c.5 6.88-.8 13.42-1.56 20.21a245.12 245.12 0 0 1-19.15 70.23c-3.65 7.33-6.74 15.74-13.95 20.34-4.25 3.06-10.3 1.77-14.6-.52-9.5-4.69-15.15-12.28-21.77-20.2-10.97-13.4-18.85-28.33-26.05-44-3.56-8.2-6.83-16.5-10.25-24.75-.87-2.13-1.17-4.1 1.07-5.43 4.72 0 9.31 1.5 14.06 1.5 9.3.25 18.74.41 27.98-.8 19.98-2.3 39.64-8.31 58-16.45 2.12-1.07 4.02-.6 6.22-.13Z" fill="#000"/><path d="M518.93 561.99c-1.93 15.16-3.98 30.2-8 44.98-4.7 16.77-10.28 33.84-19.06 48.96-2.17 3.44-5.3 7.34-9.89 6.51-7.43-1.55-14.07-8-18.68-13.73-9.88-10.97-17.89-23.26-24.61-36.38-6.13-11.12-10.64-22.89-15.69-34.52 4.8.44 9.6.8 14.4 1.2 1.13 5.94 4.6 11.5 8.45 16.07 5.08 5.94 12.23 9.8 20.13 9.97a27.87 27.87 0 0 0 16.68-7.36c8.02-7.35 11.96-17.07 14.48-27.43a265.03 265.03 0 0 0 21.79-8.27Z" fill="#8F2E45"/><path d="M490.65 572.12c-2.55 8.79-7.09 18.39-14.95 23.6-5.47 3.76-12.7 4.38-18.57 1.11-7-3.86-10.9-10.5-13.93-17.65 16.1-.33 32-2.32 47.45-7.06Z" fill="#fff"/></g><g transform="translate(-279 -322)"></g></g></svg>