<svg xmlns="http://www.w3.org/2000/svg" viewBox="0 0 400 400" fill="none" shape-rendering="auto" width="512" height="512"><desc>"Adventurer Neutral" by "Lisa Wischofsky", licensed under "CC BY 4.0". / Remix of the original. - Created with dicebear.com</desc><metadata xmlns:dc="http://purl.org/dc/elements/1.1/" xmlns:cc="http://creativecommons.org/ns#" xmlns:rdf="http://www.w3.org/1999/02/22-rdf-syntax-ns#"><rdf:RDF><cc:Work><dc:title>Adventurer Neutral</dc:title><dc:creator><cc:Agent rdf:about="https://www.instagram.com/lischi_art/"><dc:title>Lisa Wischofsky</dc:title></cc:Agent></dc:creator><dc:source>https://www.figma.com/community/file/1184595184137881796</dc:source><cc:license rdf:resource="https://creativecommons.org/licenses/by/4.0/" /></cc:Work></rdf:RDF></metadata><mask id="viewboxMask"><rect width="400" height="400" rx="0" ry="0" x="0" y="0" fill="#fff" /></mask><g mask="url(#viewboxMask)"><rect fill="#ecad80" width="400" height="400" x="0" y="0" /><g transform="translate(-279 -322)"><path d="M550.3 424.38a65.71 65.71 0 0 1 39.66 8.67 65.75 65.75 0 0 1 28.5 34.66c3.4 10.1 4.72 21.28 2.82 31.8-2.34 15.83-10.89 30.39-23.28 40.46-16.89 13.94-40.48 18.23-61.27 11.45a65.46 65.46 0 0 1-36.85-30.3c-7.4-12.95-9.69-28.2-7.34-42.87a64.98 64.98 0 0 1 18.4-35.3 65.16 65.16 0 0 1 39.36-18.57Z" fill="#000"/><path d="M549.26 430.26a59.64 59.64 0 0 1 42.62 10.89c15.42 11.05 25 29.85 24.47 48.85.07 22.7-14.11 44.36-34.86 53.52-10.79 4.85-22.8 6.65-34.5 4.5a59.52 59.52 0 0 1-40.34-26.66 61.43 61.43 0 0 1-9.37-29.31 60.42 60.42 0 0 1 13.41-40.36 59.5 59.5 0 0 1 38.57-21.43Z" fill="#fff"/><path d="M381.25 447.09a55.31 55.31 0 0 1 36.48 9.14 55.11 55.11 0 0 1 23.31 35.66c1.43 9.16 1.07 18.48-1.94 27.3a54.94 54.94 0 0 1-23.42 29.5 54.73 54.73 0 0 1-35.67 7.62c-15.79-1.82-30.36-11-39.03-24.29-5.54-8.32-8.46-18.03-9.11-27.98-.3-12.3 3.26-24.63 10.57-34.6a55.15 55.15 0 0 1 38.81-22.35Z" fill="#000"/><path d="M378.25 453.29a49.13 49.13 0 0 1 32.86 5.6c17.98 9.93 28.44 31.6 24.26 51.82a49.36 49.36 0 0 1-22.02 32.64 50.2 50.2 0 0 1-23.36 7.67c-19.83 1.35-39.3-10.23-47.63-28.27a49.26 49.26 0 0 1 5.04-50.33 49.4 49.4 0 0 1 30.85-19.14Z" fill="#fff"/><path d="M527.25 466.2c10.29-1.32 20.55 4.37 24.64 13.95 4.98 10.77.62 24.2-9.63 30.1-6.84 4.14-16 4.3-23.06.58-8.27-4.24-13.57-13.53-12.73-22.85.68-11.13 9.72-20.52 20.78-21.78ZM358.53 480.85c5.9-2.02 12.38-1.11 17.75 1.94a21.93 21.93 0 0 1 10.3 14.56c2.55 11.6-5.77 23.8-17.55 25.6-10.32 2.12-21.3-4.15-24.64-14.13-3.92-11.13 2.73-24.59 14.14-27.97Z" fill="#000"/></g><g transform="translate(-279 -322)"><path d="M545.03 378.5c24.7.94 48.04 8.97 69.45 21 2.26 1.31 4.92 2.48 6.79 4.32 1.3 2.39-.38 5.13-3.2 4.19-16.58-6.2-33.56-9.63-51.06-12.02-20.3-2.34-39.92-3.68-60.2-.13-3.2.44-6.87 2.16-10.08 1.59-2.66-1.69-1.2-6.1 1.29-7.37 13.63-9.33 30.79-12.1 47-11.58ZM407.99 396.92c3.5.64 6.6 1.92 9.63 3.78-.15 1.2-.26 2.4-.33 3.62-2.7.74-5.46 1.12-8.24 1.34-13.17 1.15-26.45 5.1-38.81 9.69-12.23 4.75-24.78 10.64-35.19 18.7-2.82 2.04-4.13 4.83-8.08 4.48-.5-.9-1-1.79-1.51-2.67.9-1.6 1.68-3.17 2.76-4.64 9.55-13.17 23.64-23.22 38.6-29.35 12.7-5.15 27.62-8.05 41.17-4.95Z" fill="#000"/></g><g transform="translate(-279 -322)"><path d="M522.82 563.04c10.94 1.36 21.85 6.96 27.22 16.95 3.39 6.26 4.89 14.23 3.3 21.22-1.46 10.35-7.53 20.05-14.5 27.62a76.94 76.94 0 0 1-44.81 23.04 92.7 92.7 0 0 1-42.88-3c-8.75-2.81-16.6-7.54-23.81-13.16-8.31-6.76-15.78-15.35-19.58-25.48a33.06 33.06 0 0 1-1.77-17.28c1.2-6.9 6.43-12.62 12.81-15.26a36.97 36.97 0 0 1 21.19-1.83c9.02 1.21 16.75 5.04 24.7 9.17 14.67-15.16 36.94-24.58 58.13-22Z" fill="#000"/><path d="M518 568.55c8.8.31 17.43 3.3 23.68 9.68-3 3.63-6.83 6.32-11 8.45-1.69.91-3.64 1.7-5.06 3-2.43 2.96-3.61 8.2-6.65 10.48-3.54-1.12-6.78-3.83-9.93-5.8a175.42 175.42 0 0 1-44.04 4.58c-11.05.23-22.04-.67-32.94-2.47-1.81-.27-4.09-1-5.85-.33-2.18 1.44-3.94 3.6-5.81 5.4-1.83-2.83-3.68-5.66-5.46-8.54l-2.73-1.25c2.73-6 8.37-9.5 14.77-10.37 11.68-1.64 24.09 2.63 34 8.6 1.96 1.02 3.62 2.33 5.79.88 2.83-2.16 5.16-4.92 8-7.08 11.96-9.59 27.77-15.96 43.23-15.23Z" fill="#fff"/><path d="M545.34 583.32a29.2 29.2 0 0 1 2.14 17.66c-1.97 9.52-7.06 17.79-13.83 24.66-10.82 11.28-26.42 18.1-41.67 20.62-11.17 1.37-23.03 1.31-33.94-1.69-14.7-3.87-28.12-12.06-37.6-24.04-5.22-6.78-9.17-14.14-9.37-22.9 2.6 2.67 3.87 6.23 6.31 8.96 4.2 3.28 7.73-2.11 10.5-4.66 17.64 2.5 36.38 4.36 54.12 2.36 8.82-.4 17.5-1.87 26.14-3.56 3.7 1.43 8.33 5.92 12.7 4.94 6.03-2.25 6.05-11.84 12.25-13.61a42.73 42.73 0 0 0 10.12-6.82l2.13-1.92Z" fill="#8F2E45"/></g><g transform="translate(-279 -322)"></g></g></svg>